<svg width="48" height="48" viewBox="0 0 48 48" fill="none" xmlns="http://www.w3.org/2000/svg">
<path d="M24.0022 48C23.644 48 23.3535 47.7096 23.3535 47.3514V33.3507L19.2715 37.4323C19.0183 37.6858 18.6076 37.6852 18.3544 37.4326C18.1008 37.179 18.1008 36.7684 18.3544 36.5151L23.5436 31.3258C23.7291 31.1404 24.008 31.0854 24.2503 31.1852C24.4928 31.2859 24.6509 31.522 24.6509 31.7844V47.3514C24.6509 47.7096 24.3604 48 24.0022 48Z" fill="#FF5014" style="fill:#FF5014;fill:color(display-p3 1.0000 0.3137 0.0784);fill-opacity:1;"/>
<path d="M23.9999 16.8642C23.9166 16.8642 23.8321 16.8481 23.7518 16.8148C23.5096 16.7144 23.3515 16.478 23.3515 16.2156V0.648624C23.3515 0.29075 23.642 0 24.0002 0C24.3584 0 24.6485 0.29075 24.6485 0.648624V14.6496L28.7306 10.5681C28.9838 10.3145 29.3945 10.3148 29.648 10.5678C29.9013 10.8213 29.9013 11.2319 29.648 11.4852L24.4588 16.6742C24.3346 16.7983 24.1686 16.8642 23.9999 16.8642Z" fill="#FF5014" style="fill:#FF5014;fill:color(display-p3 1.0000 0.3137 0.0784);fill-opacity:1;"/>
<path d="M36.9728 29.8376C36.8069 29.8376 36.6409 29.7742 36.5143 29.6476L31.325 24.4589C31.1392 24.2734 31.084 23.9942 31.1844 23.7517C31.2847 23.5097 31.5212 23.3514 31.7836 23.3514H47.351C47.7092 23.3514 48 23.6418 48 24C48 24.3582 47.7092 24.6489 47.351 24.6489H33.3497L37.4314 28.7304C37.6847 28.9837 37.6847 29.3943 37.4314 29.6476C37.3048 29.7742 37.1388 29.8376 36.9728 29.8376Z" fill="#FF5014" style="fill:#FF5014;fill:color(display-p3 1.0000 0.3137 0.0784);fill-opacity:1;"/>
<path d="M16.2161 24.6467H0.648656C0.290157 24.6467 0 24.3563 0 23.9981C0 23.6399 0.290157 23.3492 0.648656 23.3492H14.65L10.5683 19.268C10.3147 19.0145 10.3147 18.6038 10.5683 18.3506C10.8215 18.097 11.2322 18.0977 11.4854 18.3506L16.6747 23.5393C16.8602 23.7251 16.9157 24.0039 16.8153 24.2465C16.715 24.4884 16.4785 24.6467 16.2161 24.6467Z" fill="#FF5014" style="fill:#FF5014;fill:color(display-p3 1.0000 0.3137 0.0784);fill-opacity:1;"/>
<path d="M40.5119 41.1596C40.3459 41.1596 40.1799 41.0961 40.0533 40.9695L30.1526 31.0693V36.8416C30.1526 37.1998 29.8621 37.4902 29.5039 37.4902C29.1457 37.4902 28.8553 37.1998 28.8553 36.8416V29.5035C28.8553 29.2412 29.0133 29.0047 29.2556 28.904C29.4981 28.8046 29.7773 28.8592 29.9625 29.0447L40.9704 40.0521C41.2237 40.3056 41.2237 40.7163 40.9704 40.9695C40.8438 41.0961 40.6778 41.1596 40.5119 41.1596Z" fill="#FF5014" style="fill:#FF5014;fill:color(display-p3 1.0000 0.3137 0.0784);fill-opacity:1;"/>
<path d="M18.4937 19.1421C18.3249 19.1421 18.159 19.0762 18.0351 18.9524L7.02684 7.94497C6.77361 7.69144 6.77361 7.28079 7.02684 7.02726C7.28039 6.77433 7.69106 6.77433 7.9443 7.02726L17.845 16.9275V11.1551C17.845 10.797 18.1355 10.5065 18.4937 10.5065C18.8519 10.5065 19.142 10.797 19.142 11.1551V18.4935C19.142 18.7559 18.9843 18.9923 18.7417 19.0927C18.6615 19.126 18.5773 19.1421 18.4937 19.1421Z" fill="#FF5014" style="fill:#FF5014;fill:color(display-p3 1.0000 0.3137 0.0784);fill-opacity:1;"/>
<path d="M36.8426 19.1421H29.5039C29.2415 19.1421 29.005 18.9838 28.9046 18.7418C28.8042 18.4993 28.8598 18.2204 29.0453 18.0346L40.0532 7.02726C40.3065 6.77433 40.7171 6.77433 40.9707 7.02726C41.2239 7.28079 41.2239 7.69144 40.9707 7.94497L31.07 17.8449H36.8426C37.2008 17.8449 37.4912 18.1353 37.4912 18.4935C37.4912 18.8517 37.2008 19.1421 36.8426 19.1421Z" fill="#FF5014" style="fill:#FF5014;fill:color(display-p3 1.0000 0.3137 0.0784);fill-opacity:1;"/>
<path d="M7.48542 41.1593C7.31944 41.1593 7.15346 41.0959 7.02685 40.9692C6.7736 40.716 6.7736 40.3054 7.02685 40.0518L16.9276 30.1519H11.1549C10.7967 30.1519 10.506 29.8615 10.506 29.5033C10.506 29.1448 10.7967 28.8544 11.1549 28.8544H18.4934C18.7558 28.8544 18.9922 29.0127 19.0926 29.255C19.1933 29.4975 19.1374 29.7761 18.9522 29.9619L7.944 40.9692C7.81738 41.0959 7.6514 41.1593 7.48542 41.1593Z" fill="#FF5014" style="fill:#FF5014;fill:color(display-p3 1.0000 0.3137 0.0784);fill-opacity:1;"/>
</svg>
