<svg width="206" height="56" viewBox="0 0 206 56" fill="none" xmlns="http://www.w3.org/2000/svg">
<path d="M24.0022 52C23.644 52 23.3535 51.7096 23.3535 51.3514V37.3507L19.2715 41.4323C19.0183 41.6858 18.6076 41.6852 18.3544 41.4326C18.1008 41.179 18.1008 40.7684 18.3544 40.5151L23.5436 35.3258C23.7291 35.1404 24.008 35.0854 24.2503 35.1852C24.4928 35.2859 24.6509 35.522 24.6509 35.7844V51.3514C24.6509 51.7096 24.3604 52 24.0022 52Z" fill="#FF5014" style="fill:#FF5014;fill:color(display-p3 1.0000 0.3137 0.0784);fill-opacity:1;"/>
<path d="M23.9999 20.8642C23.9166 20.8642 23.8321 20.8481 23.7518 20.8148C23.5096 20.7144 23.3515 20.478 23.3515 20.2156V4.64862C23.3515 4.29075 23.642 4 24.0002 4C24.3584 4 24.6485 4.29075 24.6485 4.64862V18.6496L28.7306 14.5681C28.9838 14.3145 29.3945 14.3148 29.648 14.5678C29.9013 14.8213 29.9013 15.2319 29.648 15.4852L24.4588 20.6742C24.3346 20.7983 24.1686 20.8642 23.9999 20.8642Z" fill="#FF5014" style="fill:#FF5014;fill:color(display-p3 1.0000 0.3137 0.0784);fill-opacity:1;"/>
<path d="M36.9728 33.8376C36.8069 33.8376 36.6409 33.7742 36.5143 33.6476L31.325 28.4589C31.1392 28.2734 31.084 27.9942 31.1844 27.7517C31.2847 27.5097 31.5212 27.3514 31.7836 27.3514H47.351C47.7092 27.3514 48 27.6418 48 28C48 28.3582 47.7092 28.6489 47.351 28.6489H33.3497L37.4314 32.7304C37.6847 32.9837 37.6847 33.3943 37.4314 33.6476C37.3048 33.7742 37.1388 33.8376 36.9728 33.8376Z" fill="#FF5014" style="fill:#FF5014;fill:color(display-p3 1.0000 0.3137 0.0784);fill-opacity:1;"/>
<path d="M16.2161 28.6467H0.648656C0.290157 28.6467 0 28.3563 0 27.9981C0 27.6399 0.290157 27.3492 0.648656 27.3492H14.65L10.5683 23.268C10.3147 23.0145 10.3147 22.6038 10.5683 22.3506C10.8215 22.097 11.2322 22.0977 11.4854 22.3506L16.6747 27.5393C16.8602 27.7251 16.9157 28.0039 16.8153 28.2465C16.715 28.4884 16.4785 28.6467 16.2161 28.6467Z" fill="#FF5014" style="fill:#FF5014;fill:color(display-p3 1.0000 0.3137 0.0784);fill-opacity:1;"/>
<path d="M40.5119 45.1596C40.3459 45.1596 40.1799 45.0961 40.0533 44.9695L30.1526 35.0693V40.8416C30.1526 41.1998 29.8621 41.4902 29.5039 41.4902C29.1457 41.4902 28.8553 41.1998 28.8553 40.8416V33.5035C28.8553 33.2412 29.0133 33.0047 29.2556 32.904C29.4981 32.8046 29.7773 32.8592 29.9625 33.0447L40.9704 44.0521C41.2237 44.3056 41.2237 44.7163 40.9704 44.9695C40.8438 45.0961 40.6778 45.1596 40.5119 45.1596Z" fill="#FF5014" style="fill:#FF5014;fill:color(display-p3 1.0000 0.3137 0.0784);fill-opacity:1;"/>
<path d="M18.4937 23.1421C18.3249 23.1421 18.159 23.0762 18.0351 22.9524L7.02684 11.945C6.77361 11.6914 6.77361 11.2808 7.02684 11.0273C7.28039 10.7743 7.69106 10.7743 7.9443 11.0273L17.845 20.9275V15.1551C17.845 14.797 18.1355 14.5065 18.4937 14.5065C18.8519 14.5065 19.142 14.797 19.142 15.1551V22.4935C19.142 22.7559 18.9843 22.9923 18.7417 23.0927C18.6615 23.126 18.5773 23.1421 18.4937 23.1421Z" fill="#FF5014" style="fill:#FF5014;fill:color(display-p3 1.0000 0.3137 0.0784);fill-opacity:1;"/>
<path d="M36.8426 23.1421H29.5039C29.2415 23.1421 29.005 22.9838 28.9046 22.7418C28.8042 22.4993 28.8598 22.2204 29.0453 22.0346L40.0532 11.0273C40.3065 10.7743 40.7171 10.7743 40.9707 11.0273C41.2239 11.2808 41.2239 11.6914 40.9707 11.945L31.07 21.8449H36.8426C37.2008 21.8449 37.4912 22.1353 37.4912 22.4935C37.4912 22.8517 37.2008 23.1421 36.8426 23.1421Z" fill="#FF5014" style="fill:#FF5014;fill:color(display-p3 1.0000 0.3137 0.0784);fill-opacity:1;"/>
<path d="M7.48542 45.1593C7.31944 45.1593 7.15346 45.0959 7.02685 44.9692C6.7736 44.716 6.7736 44.3054 7.02685 44.0518L16.9276 34.1519H11.1549C10.7967 34.1519 10.506 33.8615 10.506 33.5033C10.506 33.1448 10.7967 32.8544 11.1549 32.8544H18.4934C18.7558 32.8544 18.9922 33.0127 19.0926 33.255C19.1933 33.4975 19.1374 33.7761 18.9522 33.9619L7.944 44.9692C7.81738 45.0959 7.6514 45.1593 7.48542 45.1593Z" fill="#FF5014" style="fill:#FF5014;fill:color(display-p3 1.0000 0.3137 0.0784);fill-opacity:1;"/>
<path d="M73.7927 24.787H72.7605C71.4775 21.5222 69.1628 19.7188 66.7224 19.7188C64.7207 19.7188 63.2815 21.0869 63.2815 22.8903C63.2815 28.3005 74.8873 25.9998 74.8873 33.1515C74.8873 36.6649 71.8844 39.1833 67.8175 39.1833C65.753 39.1833 63.8135 38.3125 62.625 37.2865L61.5922 38.9965H60.466L59.7778 31.9382H60.904C62.406 35.7317 65.4089 37.5042 67.7864 37.5042C69.976 37.5042 72.1973 36.4782 72.1973 33.9283C72.1973 28.7673 60.7478 30.8503 60.7478 23.6367C60.7478 20.4029 63.3126 18.0398 66.7224 18.0398C68.6308 18.0398 70.1328 18.7553 71.3213 19.7813L72.3535 18.2265H73.4798L73.7927 24.787Z" fill="#001F47" style="fill:#001F47;fill:color(display-p3 0.0000 0.1216 0.2784);fill-opacity:1;"/>
<path d="M78.8612 26.5625L77.4225 25.9094V25.2254L81.8335 23.9507H82.271V36.948C82.271 37.4762 82.4277 37.5381 84.3044 37.5381V38.8752H77.5471V37.5381C79.4243 37.5381 79.5805 37.4762 79.5805 36.948V27.5575C79.5805 26.9045 79.4243 26.8111 78.8612 26.5625ZM80.8635 16.7996C81.9586 16.7996 82.8341 17.6698 82.8341 18.7582C82.8341 19.8461 81.9586 20.7169 80.8635 20.7169C79.7684 20.7169 78.8923 19.8461 78.8923 18.7582C78.8923 17.6698 79.7684 16.7996 80.8635 16.7996Z" fill="#001F47" style="fill:#001F47;fill:color(display-p3 0.0000 0.1216 0.2784);fill-opacity:1;"/>
<path d="M93.0009 38.8714H86.2436V37.5343C88.1208 37.5343 88.277 37.4725 88.277 36.9437V27.5538C88.277 26.9007 88.1208 26.8073 87.5577 26.5587L86.1185 25.9056V25.2216L90.5294 23.947H90.9675V26.714C91.9064 25.5018 93.9392 23.947 96.0666 23.947C99.1012 23.947 100.29 26.372 100.29 29.1395V36.9437C100.29 37.4725 100.446 37.5343 102.323 37.5343V38.8714H95.5663V37.5343C97.443 37.5343 97.5997 37.4725 97.5997 36.9437V29.3881C97.5997 27.2112 96.6925 25.9681 94.7531 25.9681C93.251 25.9681 91.8435 26.8692 90.9675 27.8024V36.9437C90.9675 37.4725 91.1242 37.5343 93.0009 37.5343V38.8714Z" fill="#001F47" style="fill:#001F47;fill:color(display-p3 0.0000 0.1216 0.2784);fill-opacity:1;"/>
<path d="M110.328 45.7778C106.292 45.7778 103.415 44.4407 103.415 41.829C103.415 40.3057 104.947 39.2173 106.949 38.8438C105.698 38.4399 104.916 37.4139 104.916 36.2945C104.916 34.7397 106.261 33.7446 107.513 33.1849C105.792 32.2832 104.76 30.6981 104.76 28.9256C104.76 26.2205 107.481 23.9503 110.672 23.9503C112.393 23.9503 113.957 24.6343 115.052 25.6609C115.959 24.5415 117.054 23.3596 118.337 23.3596C119.463 23.3596 120.245 24.0127 120.245 25.163C120.245 26.189 119.431 26.7797 118.743 26.7797C117.555 26.7797 117.461 25.7227 116.929 25.7227C116.553 25.7227 116.115 25.9714 115.677 26.4067C116.209 27.1532 116.522 28.0239 116.522 28.9256C116.522 31.5992 113.832 33.9004 110.672 33.9004C109.921 33.9004 109.202 33.8071 108.576 33.5894C107.356 34.18 106.699 34.6773 106.699 35.5171C106.699 36.1392 107.137 36.6365 107.857 36.6365H113.738C116.459 36.6365 118.712 37.6625 118.712 40.3366C118.712 43.8191 114.708 45.7778 110.328 45.7778ZM107.794 39.1863C106.699 39.6526 105.854 40.3676 105.854 41.6113C105.854 43.4147 107.888 44.2854 110.578 44.2854C113.832 44.2854 116.303 42.9484 116.303 41.0825C116.303 39.6836 115.427 39.1863 113.394 39.1863H107.794ZM110.672 32.5319C112.518 32.5319 113.707 31.1329 113.707 28.9256C113.707 26.6869 112.518 25.2874 110.672 25.2874C108.795 25.2874 107.606 26.6869 107.606 28.9256C107.606 31.1329 108.795 32.5319 110.672 32.5319Z" fill="#001F47" style="fill:#001F47;fill:color(display-p3 0.0000 0.1216 0.2784);fill-opacity:1;"/>
<path d="M122.126 18.1673L120.686 17.5142V16.8302L125.097 15.5556H125.535V36.9477C125.535 37.4764 125.692 37.5383 127.569 37.5383V38.8754H120.811V37.5383C122.689 37.5383 122.845 37.4764 122.845 36.9477V19.1623C122.845 18.5093 122.689 18.4165 122.126 18.1673Z" fill="#001F47" style="fill:#001F47;fill:color(display-p3 0.0000 0.1216 0.2784);fill-opacity:1;"/>
<path d="M136.516 39.1825C132.95 39.1825 129.727 36.384 129.727 31.7203C129.727 27.1803 132.95 23.947 136.484 23.947C140.301 23.947 142.084 26.714 142.084 30.1655V31.1606H132.386V31.2534C132.386 35.2646 134.607 37.3172 137.11 37.3172C138.737 37.3172 139.8 36.6951 140.989 35.0779L142.147 35.8868C141.083 38.0007 138.831 39.1825 136.516 39.1825ZM132.48 29.792H139.456C139.425 27.1493 138.58 25.4703 136.359 25.4703C134.514 25.4703 132.887 26.9626 132.48 29.792Z" fill="#001F47" style="fill:#001F47;fill:color(display-p3 0.0000 0.1216 0.2784);fill-opacity:1;"/>
<path d="M154.377 19.7188C150.686 19.7188 147.933 22.8284 147.933 28.5181C147.933 33.6797 150.905 37.3484 154.815 37.3484C157.099 37.3484 159.226 36.2914 160.603 34.0841L161.791 35.0168C160.29 37.5661 157.85 39.1833 154.314 39.1833C149.247 39.1833 144.711 35.1411 144.711 28.6739C144.711 22.1444 149.215 18.0398 154.377 18.0398C156.286 18.0398 157.787 18.7547 158.976 19.7813L160.008 18.2265H161.135L161.447 24.787H160.415C159.101 21.4289 156.818 19.7188 154.377 19.7188Z" fill="#001F47" style="fill:#001F47;fill:color(display-p3 0.0000 0.1216 0.2784);fill-opacity:1;"/>
<path d="M172.959 36.5089C171.896 37.9078 169.862 39.183 167.985 39.183C165.889 39.183 164.356 37.9078 164.356 35.7939C164.356 33.0573 167.047 31.1611 172.834 29.9793V28.0516C172.834 26.3106 171.927 25.3774 170.174 25.3774C168.83 25.3774 167.735 26.0305 167.735 26.7145C167.735 27.1184 168.016 27.3052 168.016 27.9582C168.016 28.829 167.359 29.4505 166.452 29.4505C165.607 29.4505 164.825 28.7975 164.825 27.7405C164.825 25.5951 167.829 23.947 170.832 23.947C173.616 23.947 175.524 24.9111 175.524 27.9582V35.7315C175.524 36.8509 176.212 37.3172 176.807 37.3172C177.401 37.3172 177.777 37.0995 178.215 36.7575L178.684 37.7216C178.027 38.499 176.932 39.183 175.868 39.183C174.398 39.183 173.178 38.0946 172.959 36.5089ZM167.015 35.2652C167.015 36.5398 167.829 37.3172 169.017 37.3172C170.456 37.3172 171.676 36.6332 172.834 35.4514V31.3164C168.955 32.1871 167.015 33.2441 167.015 35.2652Z" fill="#001F47" style="fill:#001F47;fill:color(display-p3 0.0000 0.1216 0.2784);fill-opacity:1;"/>
<path d="M182.497 27.7405C182.497 31.0362 190.662 29.3881 190.662 34.5497C190.662 37.4106 187.941 39.183 184.844 39.183C182.904 39.183 181.215 38.53 179.964 37.8145L179.651 33.9905H180.871C181.434 36.7575 182.935 37.6907 185.094 37.6907C186.72 37.6907 188.222 36.8509 188.222 35.2652C188.222 31.6584 180.245 33.5546 180.245 28.5179C180.245 25.9056 182.529 23.947 185.532 23.947C187.315 23.947 188.692 24.5067 189.755 25.0979V28.7975H188.66C188.316 26.7145 187.44 25.4393 185.282 25.4393C183.686 25.4393 182.497 26.3101 182.497 27.7405Z" fill="#001F47" style="fill:#001F47;fill:color(display-p3 0.0000 0.1216 0.2784);fill-opacity:1;"/>
<path d="M199.924 39.1825C196.358 39.1825 193.136 36.384 193.136 31.7203C193.136 27.1803 196.358 23.947 199.893 23.947C203.709 23.947 205.493 26.714 205.493 30.1655V31.1606H195.795V31.2534C195.795 35.2646 198.016 37.3172 200.519 37.3172C202.145 37.3172 203.209 36.6951 204.398 35.0779L205.556 35.8868C204.492 38.0007 202.239 39.1825 199.924 39.1825ZM195.889 29.792H202.865C202.833 27.1493 201.989 25.4703 199.768 25.4703C197.922 25.4703 196.296 26.9626 195.889 29.792Z" fill="#001F47" style="fill:#001F47;fill:color(display-p3 0.0000 0.1216 0.2784);fill-opacity:1;"/>
</svg>
